<svg xmlns="http://www.w3.org/2000/svg" viewBox="0 0 410 404" width="32" height="32" fill="none">
  <defs>
    <linearGradient id="vite-a" x1="6.5" y1="32" x2="235" y2="344" gradientUnits="userSpaceOnUse">
      <stop stop-color="#41D1FF"/>
      <stop offset="1" stop-color="#BD34FE"/>
    </linearGradient>
    <linearGradient id="vite-b" x1="194.65" y1="8" x2="236.08" y2="292.99" gradientUnits="userSpaceOnUse">
      <stop stop-color="#FFEA83"/>
      <stop offset=".083" stop-color="#FFDD35"/>
      <stop offset="1" stop-color="#FFA800"/>
    </linearGradient>
  </defs>
  <path d="M399.6 59.5L215.4 388c-5.3 9.7-19.3 9.7-24.6 0L10.4 59.5c-5.6-10.1 3.2-22.2 14.6-20.3l180 30.7a14 14 0 0 0 4.7 0l180-30.7c11.4-1.9 20.2 10.2 14.6 20.3Z" fill="url(#vite-a)"/>
  <path d="M292.7 1.7l-84.3 18.1a7 7 0 0 0-5.5 6.9v195.6a7 7 0 0 0 8.5 6.8l23.5-5.1a7 7 0 0 0 5.5-6.8V73.6l47.7-10.2a7 7 0 0 0 5.4-6.8V8.5a7 7 0 0 0-8.3-6.8Z" fill="url(#vite-b)"/>
</svg>

